<mxfile host="app.diagrams.net" modified="2021-11-21T09:39:32.983Z" agent="5.0 (Windows NT 10.0; Win64; x64) AppleWebKit/537.36 (KHTML, like Gecko) Chrome/95.0.4638.69 Safari/537.36 Edg/95.0.1020.53" etag="FsL17cOLPVf2s-YuIJzt" version="15.7.3" type="github">
  <diagram id="pXZynLBDrXZ61WY-b8cf" name="第 1 页">
    <mxGraphModel dx="1422" dy="762" grid="1" gridSize="10" guides="1" tooltips="1" connect="1" arrows="1" fold="1" page="1" pageScale="1" pageWidth="827" pageHeight="1169" math="0" shadow="0">
      <root>
        <mxCell id="0" />
        <mxCell id="1" parent="0" />
        <mxCell id="bDMm6W2KC7-mHcButucU-5" style="edgeStyle=orthogonalEdgeStyle;rounded=0;orthogonalLoop=1;jettySize=auto;html=1;exitX=0.5;exitY=1;exitDx=0;exitDy=0;entryX=0.5;entryY=0;entryDx=0;entryDy=0;" edge="1" parent="1" source="bDMm6W2KC7-mHcButucU-1" target="bDMm6W2KC7-mHcButucU-4">
          <mxGeometry relative="1" as="geometry" />
        </mxCell>
        <mxCell id="bDMm6W2KC7-mHcButucU-7" style="edgeStyle=orthogonalEdgeStyle;rounded=0;orthogonalLoop=1;jettySize=auto;html=1;entryX=0.5;entryY=0;entryDx=0;entryDy=0;exitX=0.5;exitY=1;exitDx=0;exitDy=0;" edge="1" parent="1" source="bDMm6W2KC7-mHcButucU-1" target="bDMm6W2KC7-mHcButucU-6">
          <mxGeometry relative="1" as="geometry">
            <Array as="points">
              <mxPoint x="370" y="170" />
              <mxPoint x="450" y="170" />
            </Array>
          </mxGeometry>
        </mxCell>
        <mxCell id="bDMm6W2KC7-mHcButucU-1" value="教师用户" style="rounded=1;whiteSpace=wrap;html=1;" vertex="1" parent="1">
          <mxGeometry x="310" y="80" width="120" height="60" as="geometry" />
        </mxCell>
        <mxCell id="bDMm6W2KC7-mHcButucU-9" style="edgeStyle=orthogonalEdgeStyle;rounded=0;orthogonalLoop=1;jettySize=auto;html=1;exitX=0.5;exitY=1;exitDx=0;exitDy=0;entryX=0.5;entryY=0;entryDx=0;entryDy=0;" edge="1" parent="1" source="bDMm6W2KC7-mHcButucU-4" target="bDMm6W2KC7-mHcButucU-8">
          <mxGeometry relative="1" as="geometry" />
        </mxCell>
        <mxCell id="bDMm6W2KC7-mHcButucU-4" value="选择群组" style="rounded=1;whiteSpace=wrap;html=1;" vertex="1" parent="1">
          <mxGeometry x="230" y="200" width="120" height="60" as="geometry" />
        </mxCell>
        <mxCell id="bDMm6W2KC7-mHcButucU-10" style="edgeStyle=orthogonalEdgeStyle;rounded=0;orthogonalLoop=1;jettySize=auto;html=1;entryX=0.5;entryY=0;entryDx=0;entryDy=0;" edge="1" parent="1" source="bDMm6W2KC7-mHcButucU-6" target="bDMm6W2KC7-mHcButucU-8">
          <mxGeometry relative="1" as="geometry" />
        </mxCell>
        <mxCell id="bDMm6W2KC7-mHcButucU-6" value="创建新群组" style="rounded=1;whiteSpace=wrap;html=1;" vertex="1" parent="1">
          <mxGeometry x="390" y="200" width="120" height="60" as="geometry" />
        </mxCell>
        <mxCell id="bDMm6W2KC7-mHcButucU-11" style="edgeStyle=orthogonalEdgeStyle;rounded=0;orthogonalLoop=1;jettySize=auto;html=1;entryX=0.5;entryY=0;entryDx=0;entryDy=0;" edge="1" parent="1" source="bDMm6W2KC7-mHcButucU-8" target="bDMm6W2KC7-mHcButucU-12">
          <mxGeometry relative="1" as="geometry">
            <mxPoint x="370" y="430.0000000000001" as="targetPoint" />
          </mxGeometry>
        </mxCell>
        <mxCell id="bDMm6W2KC7-mHcButucU-19" value="" style="edgeStyle=orthogonalEdgeStyle;rounded=0;orthogonalLoop=1;jettySize=auto;html=1;" edge="1" parent="1" source="bDMm6W2KC7-mHcButucU-8" target="bDMm6W2KC7-mHcButucU-18">
          <mxGeometry relative="1" as="geometry" />
        </mxCell>
        <mxCell id="bDMm6W2KC7-mHcButucU-20" value="开启" style="edgeLabel;html=1;align=center;verticalAlign=middle;resizable=0;points=[];" vertex="1" connectable="0" parent="bDMm6W2KC7-mHcButucU-19">
          <mxGeometry x="-0.2664" y="-1" relative="1" as="geometry">
            <mxPoint as="offset" />
          </mxGeometry>
        </mxCell>
        <mxCell id="bDMm6W2KC7-mHcButucU-8" value="开启直播" style="rounded=1;whiteSpace=wrap;html=1;" vertex="1" parent="1">
          <mxGeometry x="310" y="310" width="120" height="60" as="geometry" />
        </mxCell>
        <mxCell id="bDMm6W2KC7-mHcButucU-14" style="edgeStyle=orthogonalEdgeStyle;rounded=0;orthogonalLoop=1;jettySize=auto;html=1;entryX=0;entryY=0.5;entryDx=0;entryDy=0;" edge="1" parent="1" source="bDMm6W2KC7-mHcButucU-12" target="bDMm6W2KC7-mHcButucU-13">
          <mxGeometry relative="1" as="geometry" />
        </mxCell>
        <mxCell id="bDMm6W2KC7-mHcButucU-12" value="通知群组成员" style="rounded=1;whiteSpace=wrap;html=1;" vertex="1" parent="1">
          <mxGeometry x="310" y="430" width="120" height="60" as="geometry" />
        </mxCell>
        <mxCell id="bDMm6W2KC7-mHcButucU-21" style="edgeStyle=orthogonalEdgeStyle;rounded=0;orthogonalLoop=1;jettySize=auto;html=1;entryX=0.5;entryY=1;entryDx=0;entryDy=0;" edge="1" parent="1" source="bDMm6W2KC7-mHcButucU-13" target="bDMm6W2KC7-mHcButucU-18">
          <mxGeometry relative="1" as="geometry" />
        </mxCell>
        <mxCell id="bDMm6W2KC7-mHcButucU-22" value="加入" style="edgeLabel;html=1;align=center;verticalAlign=middle;resizable=0;points=[];" vertex="1" connectable="0" parent="bDMm6W2KC7-mHcButucU-21">
          <mxGeometry x="-0.6477" y="-6" relative="1" as="geometry">
            <mxPoint as="offset" />
          </mxGeometry>
        </mxCell>
        <mxCell id="bDMm6W2KC7-mHcButucU-13" value="群组其他用户" style="rounded=1;whiteSpace=wrap;html=1;" vertex="1" parent="1">
          <mxGeometry x="510" y="430" width="120" height="60" as="geometry" />
        </mxCell>
        <mxCell id="bDMm6W2KC7-mHcButucU-18" value="直播间" style="whiteSpace=wrap;html=1;rounded=1;" vertex="1" parent="1">
          <mxGeometry x="510" y="310" width="120" height="60" as="geometry" />
        </mxCell>
      </root>
    </mxGraphModel>
  </diagram>
</mxfile>
